<svg width="183" height="124" viewBox="0 0 183 124" fill="none" xmlns="http://www.w3.org/2000/svg">
<path d="M19 16.1954L0 110.695C34.5 96.1954 69.5 101.695 77.5 114.695C98.6869 98.607 151.966 103.27 164 109.695L183 23.1954L176 20.6954L157.5 99.6954C133.698 79.6452 90.5348 89.4626 84.4393 96.1187C84.2917 96.3094 84.1453 96.5017 84 96.6954C84.1136 96.5064 84.2605 96.3139 84.4393 96.1187C99.5232 76.6195 126.271 72.8213 154 85.6954L170.5 6.19541C118.8 -10.4141 100 10.6954 93.5 19.1954C88.9694 11.0333 58.9997 3.19531 19 16.1954Z" fill="#3D3D3D"/>
<path d="M77.5 114.695C69.5 101.695 34.5 96.1954 0 110.695C3.5 112.695 5 117.695 5 117.695C30.9997 109.195 61 109.695 75.5 123.195C99.6954 111.099 127 110.695 156 119.695C154.674 113.929 162.082 109.275 164 109.695C151.966 103.27 98.6869 98.607 77.5 114.695Z" fill="#252525"/>
</svg>
