<svg width="551" height="140" viewBox="0 0 551 140" fill="none" xmlns="http://www.w3.org/2000/svg">
<path d="M229.16 104.64C222.067 104.64 216.387 103.307 212.12 100.64C207.853 97.92 205.72 93.7867 205.72 88.24C205.72 85.3067 206.227 83.0667 207.24 81.52C208.253 79.9733 209.747 79.2 211.72 79.2C213.16 79.2 214.333 79.5733 215.24 80.32C216.147 81.0667 216.6 82.0267 216.6 83.2C216.6 84.2667 216.52 85.2 216.36 86C216.36 86.2133 216.307 86.5867 216.2 87.12C216.147 87.6533 216.12 88.2133 216.12 88.8C216.12 91.2 217.32 92.9867 219.72 94.16C222.173 95.3333 225.587 95.92 229.96 95.92C234.493 95.92 238.04 95.12 240.6 93.52C243.16 91.8667 244.44 89.5733 244.44 86.64C244.44 84.8267 243.853 83.28 242.68 82C241.507 80.6667 240.04 79.5733 238.28 78.72C236.52 77.8133 234.04 76.72 230.84 75.44C226.733 73.84 223.373 72.32 220.76 70.88C218.2 69.44 215.987 67.4933 214.12 65.04C212.307 62.5333 211.4 59.44 211.4 55.76C211.4 51.92 212.413 48.5067 214.44 45.52C216.52 42.5333 219.48 40.2133 223.32 38.56C227.213 36.9067 231.773 36.08 237 36.08C240.893 36.08 244.467 36.6667 247.72 37.84C250.973 38.96 253.56 40.6933 255.48 43.04C257.453 45.3867 258.44 48.2667 258.44 51.68C258.44 55.04 257.933 57.5733 256.92 59.28C255.907 60.9867 254.413 61.84 252.44 61.84C251.053 61.84 249.88 61.4133 248.92 60.56C248.013 59.7067 247.56 58.6933 247.56 57.52C247.56 56.5067 247.64 55.5733 247.8 54.72C247.96 53.12 248.04 52.1067 248.04 51.68C248.04 49.44 246.947 47.7333 244.76 46.56C242.573 45.3867 239.853 44.8 236.6 44.8C232.013 44.8 228.493 45.6533 226.04 47.36C223.64 49.0133 222.44 51.36 222.44 54.4C222.44 56.4267 223.053 58.16 224.28 59.6C225.56 61.04 227.133 62.24 229 63.2C230.867 64.16 233.48 65.3067 236.84 66.64C240.893 68.2933 244.147 69.7867 246.6 71.12C249.053 72.4533 251.133 74.2667 252.84 76.56C254.6 78.8533 255.48 81.68 255.48 85.04C255.48 91.3333 253.08 96.1867 248.28 99.6C243.533 102.96 237.16 104.64 229.16 104.64ZM297.989 86.16C298.682 86.16 299.215 86.48 299.589 87.12C300.015 87.76 300.229 88.64 300.229 89.76C300.229 91.8933 299.722 93.5467 298.709 94.72C296.735 97.12 293.935 99.3333 290.309 101.36C286.735 103.387 282.895 104.4 278.789 104.4C273.189 104.4 268.842 102.88 265.749 99.84C262.655 96.8 261.109 92.64 261.109 87.36C261.109 83.68 261.882 80.2667 263.429 77.12C264.975 73.92 267.109 71.3867 269.829 69.52C272.602 67.6533 275.722 66.72 279.189 66.72C282.282 66.72 284.762 67.6533 286.629 69.52C288.495 71.3333 289.429 73.8133 289.429 76.96C289.429 80.64 288.095 83.8133 285.429 86.48C282.815 89.0933 278.362 91.1733 272.069 92.72C273.402 95.1733 275.935 96.4 279.669 96.4C282.069 96.4 284.789 95.5733 287.829 93.92C290.922 92.2133 293.589 90 295.829 87.28C296.469 86.5333 297.189 86.16 297.989 86.16ZM277.829 74.56C275.855 74.56 274.175 75.7067 272.789 78C271.455 80.2933 270.789 83.0667 270.789 86.32V86.48C273.935 85.7333 276.415 84.6133 278.229 83.12C280.042 81.6267 280.949 79.8933 280.949 77.92C280.949 76.9067 280.655 76.1067 280.069 75.52C279.535 74.88 278.789 74.56 277.829 74.56ZM299.395 104.4C297.368 104.4 295.928 103.333 295.075 101.2C294.275 99.0667 293.875 95.6533 293.875 90.96C293.875 84.0267 294.862 77.44 296.835 71.2C297.315 69.6533 298.088 68.5333 299.155 67.84C300.275 67.0933 301.822 66.72 303.795 66.72C304.862 66.72 305.608 66.8533 306.035 67.12C306.462 67.3867 306.675 67.8933 306.675 68.64C306.675 69.4933 306.275 71.4133 305.475 74.4C304.942 76.5333 304.515 78.4 304.195 80C303.875 81.5467 303.608 83.4933 303.395 85.84C304.835 81.68 306.542 78.16 308.515 75.28C310.542 72.4 312.595 70.2667 314.675 68.88C316.808 67.44 318.808 66.72 320.675 66.72C322.542 66.72 323.848 67.1467 324.595 68C325.395 68.8533 325.795 70.16 325.795 71.92C325.795 73.6267 325.288 76.72 324.275 81.2C323.848 83.12 323.555 84.56 323.395 85.52C326.062 78.96 329.022 74.1867 332.275 71.2C335.528 68.2133 338.568 66.72 341.395 66.72C344.862 66.72 346.595 68.4533 346.595 71.92C346.595 74 346.008 77.76 344.835 83.2C343.822 87.84 343.315 90.9067 343.315 92.4C343.315 94.5333 344.088 95.6 345.635 95.6C346.702 95.6 347.955 94.96 349.395 93.68C350.888 92.3467 352.862 90.2133 355.315 87.28C355.955 86.5333 356.675 86.16 357.475 86.16C358.168 86.16 358.702 86.48 359.075 87.12C359.502 87.76 359.715 88.64 359.715 89.76C359.715 91.8933 359.208 93.5467 358.195 94.72C355.902 97.5467 353.422 99.8667 350.755 101.68C348.142 103.493 345.155 104.4 341.795 104.4C339.075 104.4 337.022 103.627 335.635 102.08C334.248 100.48 333.555 98.1867 333.555 95.2C333.555 93.7067 333.928 91.04 334.675 87.2C335.368 83.84 335.715 81.52 335.715 80.24C335.715 79.3867 335.422 78.96 334.835 78.96C334.142 78.96 333.155 79.8667 331.875 81.68C330.595 83.44 329.315 85.7867 328.035 88.72C326.755 91.6533 325.715 94.7467 324.915 98C324.328 100.56 323.635 102.267 322.835 103.12C322.088 103.973 320.862 104.4 319.155 104.4C317.395 104.4 316.062 103.573 315.155 101.92C314.302 100.213 313.875 98.16 313.875 95.76C313.875 93.7333 314.142 90.8 314.675 86.96C315.102 83.5467 315.315 81.3067 315.315 80.24C315.315 79.3867 315.022 78.96 314.435 78.96C313.635 78.96 312.622 79.92 311.395 81.84C310.168 83.76 308.968 86.2133 307.795 89.2C306.675 92.1867 305.768 95.12 305.075 98C304.488 100.507 303.795 102.213 302.995 103.12C302.248 103.973 301.048 104.4 299.395 104.4ZM363.726 61.44C361.486 61.44 359.806 60.9333 358.686 59.92C357.566 58.8533 357.006 57.3867 357.006 55.52C357.006 53.6533 357.726 52.1067 359.166 50.88C360.66 49.6 362.5 48.96 364.686 48.96C366.66 48.96 368.26 49.44 369.486 50.4C370.713 51.36 371.326 52.72 371.326 54.48C371.326 56.6133 370.633 58.32 369.246 59.6C367.86 60.8267 366.02 61.44 363.726 61.44ZM363.086 104.4C359.62 104.4 357.086 103.173 355.486 100.72C353.94 98.2667 353.166 95.0133 353.166 90.96C353.166 88.56 353.46 85.4933 354.046 81.76C354.686 77.9733 355.486 74.4533 356.446 71.2C356.926 69.4933 357.566 68.32 358.366 67.68C359.166 67.04 360.446 66.72 362.206 66.72C364.926 66.72 366.286 67.6267 366.286 69.44C366.286 70.7733 365.78 73.8667 364.766 78.72C363.486 84.5867 362.846 88.56 362.846 90.64C362.846 92.24 363.06 93.4667 363.486 94.32C363.913 95.1733 364.633 95.6 365.646 95.6C366.606 95.6 367.806 94.9333 369.246 93.6C370.686 92.2667 372.606 90.16 375.006 87.28C375.646 86.5333 376.366 86.16 377.166 86.16C377.86 86.16 378.393 86.48 378.766 87.12C379.193 87.76 379.406 88.64 379.406 89.76C379.406 91.8933 378.9 93.5467 377.886 94.72C372.606 101.173 367.673 104.4 363.086 104.4ZM474.534 69.44C475.76 69.44 476.64 69.7067 477.174 70.24C477.76 70.7733 478.054 71.4667 478.054 72.32C478.054 73.7067 477.627 74.9333 476.774 76C475.974 77.0667 474.694 77.6267 472.934 77.68C468.72 77.7333 464.934 77.4133 461.574 76.72C457.84 84.6667 453.334 91.28 448.054 96.56C442.827 101.787 437.654 104.4 432.534 104.4C427.84 104.4 424.32 101.92 421.974 96.96C419.627 91.9467 418.294 85.2533 417.974 76.88C414.774 86.16 411.147 93.0667 407.094 97.6C403.094 102.133 398.827 104.4 394.294 104.4C389.174 104.4 385.307 101.227 382.694 94.88C380.08 88.48 378.774 79.8933 378.774 69.12C378.774 61.28 379.467 52.6667 380.854 43.28C381.227 40.6133 381.894 38.7733 382.854 37.76C383.867 36.6933 385.44 36.16 387.574 36.16C389.174 36.16 390.4 36.5067 391.254 37.2C392.16 37.8933 392.614 39.1733 392.614 41.04C392.614 41.4133 392.56 42.1333 392.454 43.2C390.854 54.1333 390.054 63.44 390.054 71.12C390.054 78.2667 390.667 83.7867 391.894 87.68C393.12 91.5733 394.774 93.52 396.854 93.52C398.72 93.52 400.96 91.5733 403.574 87.68C406.24 83.7333 408.88 77.92 411.494 70.24C414.107 62.5067 416.32 53.3067 418.134 42.64C418.56 40.1867 419.334 38.5067 420.454 37.6C421.627 36.64 423.2 36.16 425.174 36.16C426.827 36.16 428.027 36.5333 428.774 37.28C429.574 37.9733 429.974 39.04 429.974 40.48C429.974 41.3333 429.92 42 429.814 42.48C428.32 51.1733 427.574 59.8667 427.574 68.56C427.574 74.48 427.76 79.2 428.134 82.72C428.56 86.24 429.334 88.9333 430.454 90.8C431.627 92.6133 433.307 93.52 435.494 93.52C438.054 93.52 440.907 91.6 444.054 87.76C447.2 83.8667 450.08 79.04 452.694 73.28C449.44 71.2533 446.987 68.64 445.334 65.44C443.68 62.1867 442.854 58.4533 442.854 54.24C442.854 50.0267 443.494 46.48 444.774 43.6C446.107 40.6667 447.894 38.48 450.134 37.04C452.427 35.6 454.96 34.88 457.734 34.88C461.147 34.88 463.84 36.1067 465.814 38.56C467.84 41.0133 468.854 44.3733 468.854 48.64C468.854 54.6667 467.547 61.36 464.934 68.72C467.654 69.2 470.854 69.44 474.534 69.44ZM450.934 53.68C450.934 58.9067 452.614 62.7733 455.974 65.28C458.054 59.3067 459.094 54.3733 459.094 50.48C459.094 48.24 458.8 46.6133 458.214 45.6C457.627 44.5333 456.827 44 455.814 44C454.374 44 453.2 44.8533 452.294 46.56C451.387 48.2133 450.934 50.5867 450.934 53.68ZM480.758 61.44C478.518 61.44 476.838 60.9333 475.718 59.92C474.598 58.8533 474.038 57.3867 474.038 55.52C474.038 53.6533 474.758 52.1067 476.198 50.88C477.691 49.6 479.531 48.96 481.718 48.96C483.691 48.96 485.291 49.44 486.518 50.4C487.744 51.36 488.358 52.72 488.358 54.48C488.358 56.6133 487.664 58.32 486.278 59.6C484.891 60.8267 483.051 61.44 480.758 61.44ZM480.118 104.4C476.651 104.4 474.118 103.173 472.518 100.72C470.971 98.2667 470.198 95.0133 470.198 90.96C470.198 88.56 470.491 85.4933 471.078 81.76C471.718 77.9733 472.518 74.4533 473.478 71.2C473.958 69.4933 474.598 68.32 475.398 67.68C476.198 67.04 477.478 66.72 479.238 66.72C481.958 66.72 483.318 67.6267 483.318 69.44C483.318 70.7733 482.811 73.8667 481.798 78.72C480.518 84.5867 479.878 88.56 479.878 90.64C479.878 92.24 480.091 93.4667 480.518 94.32C480.944 95.1733 481.664 95.6 482.678 95.6C483.638 95.6 484.838 94.9333 486.278 93.6C487.718 92.2667 489.638 90.16 492.038 87.28C492.678 86.5333 493.398 86.16 494.198 86.16C494.891 86.16 495.424 86.48 495.798 87.12C496.224 87.76 496.438 88.64 496.438 89.76C496.438 91.8933 495.931 93.5467 494.918 94.72C489.638 101.173 484.704 104.4 480.118 104.4ZM536.205 86.16C536.898 86.16 537.432 86.48 537.805 87.12C538.232 87.76 538.445 88.64 538.445 89.76C538.445 91.8933 537.938 93.5467 536.925 94.72C534.525 97.6533 532.098 100 529.645 101.76C527.192 103.52 524.285 104.4 520.925 104.4C516.818 104.4 513.512 103.227 511.005 100.88C508.498 98.5333 507.245 95.4133 507.245 91.52C507.245 89.44 508.312 87.9467 510.445 87.04C512.792 86.0267 514.472 84.96 515.485 83.84C516.498 82.6667 517.005 81.2533 517.005 79.6C517.005 78.64 516.792 77.92 516.365 77.44C515.992 76.96 515.512 76.72 514.925 76.72C513.485 76.72 511.885 77.76 510.125 79.84C508.418 81.92 506.818 84.6133 505.325 87.92C503.832 91.1733 502.658 94.5333 501.805 98C501.218 100.507 500.525 102.213 499.725 103.12C498.978 103.973 497.778 104.4 496.125 104.4C494.472 104.4 493.245 103.813 492.445 102.64C491.698 101.413 491.192 99.5467 490.925 97.04C490.658 94.5333 490.525 90.8533 490.525 86C490.525 77.7867 491.352 69.2267 493.005 60.32C494.712 51.4133 497.192 43.9467 500.445 37.92C503.752 31.84 507.698 28.8 512.285 28.8C514.738 28.8 516.712 29.8667 518.205 32C519.752 34.08 520.525 36.8 520.525 40.16C520.525 45.5467 518.952 51.1467 515.805 56.96C512.658 62.72 507.538 69.4667 500.445 77.2C500.285 79.9733 500.205 82.8267 500.205 85.76C502.765 79.0933 505.698 74.2667 509.005 71.28C512.312 68.24 515.405 66.72 518.285 66.72C520.952 66.72 523.085 67.6267 524.685 69.44C526.338 71.2533 527.165 73.4933 527.165 76.16C527.165 79.0933 526.418 81.7867 524.925 84.24C523.432 86.6933 520.872 88.88 517.245 90.8C517.458 92.24 518.098 93.4133 519.165 94.32C520.285 95.1733 521.618 95.6 523.165 95.6C524.818 95.6 526.418 94.96 527.965 93.68C529.512 92.4 531.538 90.2667 534.045 87.28C534.685 86.5333 535.405 86.16 536.205 86.16ZM510.605 36.72C509.645 36.72 508.578 38.1067 507.405 40.88C506.232 43.6 505.085 47.3067 503.965 52C502.898 56.64 502.018 61.7067 501.325 67.2C504.632 63.3067 507.352 59.0667 509.485 54.48C511.672 49.8933 512.765 45.7333 512.765 42C512.765 40.2933 512.578 38.9867 512.205 38.08C511.832 37.1733 511.298 36.72 510.605 36.72ZM543.036 61.44C540.796 61.44 539.116 60.9333 537.996 59.92C536.876 58.8533 536.316 57.3867 536.316 55.52C536.316 53.6533 537.036 52.1067 538.476 50.88C539.97 49.6 541.81 48.96 543.996 48.96C545.97 48.96 547.57 49.44 548.796 50.4C550.023 51.36 550.636 52.72 550.636 54.48C550.636 56.6133 549.943 58.32 548.556 59.6C547.17 60.8267 545.33 61.44 543.036 61.44ZM535.356 104.4C533.65 104.4 532.476 104.053 531.836 103.36C531.196 102.667 530.876 101.573 530.876 100.08C530.876 99.6533 530.93 98.9067 531.036 97.84C531.89 88.08 533.303 79.2 535.276 71.2C535.703 69.5467 536.396 68.4 537.356 67.76C538.37 67.0667 539.97 66.72 542.156 66.72C544.45 66.72 545.596 67.6533 545.596 69.52C545.596 69.7867 545.543 70.2933 545.436 71.04C543.036 82.4533 541.596 92.0267 541.116 99.76C541.01 101.467 540.503 102.667 539.596 103.36C538.69 104.053 537.276 104.4 535.356 104.4Z" fill="black"/>
<path d="M19 24.1954L0 118.695C34.5 104.195 69.5 109.695 77.5 122.695C98.6869 106.607 151.966 111.27 164 117.695L183 31.1954L176 28.6954L157.5 107.695C133.698 87.6452 90.5348 97.4626 84.4393 104.119C84.2917 104.309 84.1453 104.502 84 104.695C84.1136 104.506 84.2605 104.314 84.4393 104.119C99.5232 84.6195 126.271 80.8213 154 93.6954L170.5 14.1954C118.8 -2.41406 100 18.6954 93.5 27.1954C88.9695 19.0333 58.9997 11.1953 19 24.1954Z" fill="#3D3D3D"/>
<path d="M77.5 122.695C69.5 109.695 34.5 104.195 0 118.695C3.5 120.695 5 125.695 5 125.695C30.9997 117.195 61 117.695 75.5 131.195C99.6954 119.099 127 118.695 156 127.695C154.674 121.929 162.082 117.275 164 117.695C151.966 111.27 98.6869 106.607 77.5 122.695Z" fill="#252525"/>
</svg>
