<svg width="20" height="20" viewBox="0 0 20 20" fill="none" xmlns="http://www.w3.org/2000/svg">
<path d="M20 10C20 15.5228 15.5228 20 10 20C4.47715 20 0 15.5228 0 10C0 4.47715 4.47715 0 10 0C15.5228 0 20 4.47715 20 10Z" fill="#353535"/>
<path d="M10 0.5C15.2467 0.5 19.5 4.75329 19.5 10C19.5 15.2467 15.2467 19.5 10 19.5C4.75329 19.5 0.5 15.2467 0.5 10C0.5 4.75329 4.75329 0.5 10 0.5Z" stroke="#FF9E3D" stroke-opacity="0.5"/>
<path d="M7.31263 6.00001C7.28029 5.99984 7.24576 6.00374 7.21053 6.01044V6.00937C6.60066 6.1239 5.7018 7.16744 6.09809 7.56353L8.53653 10.001L6.09812 12.4384C5.61048 12.9259 7.0739 14.3895 7.56158 13.9019L10 11.4634L12.4384 13.9018C12.9261 14.3894 14.3895 12.9259 13.9019 12.4384L11.4635 10.0009L13.9019 7.56353C14.3895 7.07604 12.9261 5.61358 12.4384 6.10107L10 8.5385L7.56158 6.10107C7.49292 6.03287 7.40962 6.00051 7.31263 6.00001Z" fill="#FF9E3D"/>
<path d="M7.71094 5.59766C7.75869 5.62281 7.80507 5.65215 7.84863 5.6875L7.91406 5.74609L7.91504 5.74707L10 7.83105L12.085 5.74707L12.1484 5.68945C12.4716 5.42377 12.8722 5.4932 13.1211 5.58887C13.4038 5.69763 13.6746 5.89833 13.8896 6.11328C14.1046 6.32818 14.3052 6.59831 14.4141 6.88086C14.5163 7.14633 14.5877 7.58424 14.2549 7.91699L12.1709 10.001L14.2549 12.085C14.5878 12.4177 14.5162 12.8556 14.4141 13.1211C14.3052 13.4039 14.1047 13.6746 13.8896 13.8896C13.6745 14.1048 13.4039 14.3052 13.1211 14.4141C12.8557 14.5162 12.4178 14.5883 12.085 14.2559L10 12.1709L7.91504 14.2559C7.58224 14.5884 7.14432 14.5162 6.87891 14.4141C6.59611 14.3052 6.32546 14.1048 6.11035 13.8896C5.89526 13.6745 5.69479 13.4039 5.58594 13.1211C5.48383 12.8557 5.41162 12.4177 5.74414 12.085H5.74512L7.82812 10.001L5.74414 7.91699C5.47599 7.6487 5.47173 7.30173 5.5332 7.05078C5.5939 6.80313 5.7319 6.56866 5.88184 6.375C6.03553 6.1765 6.22578 5.98991 6.42773 5.8418C6.62364 5.69816 6.86412 5.56529 7.11816 5.51758L7.71094 5.40625V5.59766Z" stroke="#FF9E3D" stroke-opacity="0.5"/>
</svg>
