<svg width="348" height="263" viewBox="0 0 348 263" fill="none" xmlns="http://www.w3.org/2000/svg">
<path d="M26.16 227.64C19.0667 227.64 13.3867 226.307 9.12 223.64C4.85333 220.92 2.72 216.787 2.72 211.24C2.72 208.307 3.22667 206.067 4.24 204.52C5.25333 202.973 6.74667 202.2 8.72 202.2C10.16 202.2 11.3333 202.573 12.24 203.32C13.1467 204.067 13.6 205.027 13.6 206.2C13.6 207.267 13.52 208.2 13.36 209C13.36 209.213 13.3067 209.587 13.2 210.12C13.1467 210.653 13.12 211.213 13.12 211.8C13.12 214.2 14.32 215.987 16.72 217.16C19.1733 218.333 22.5867 218.92 26.96 218.92C31.4933 218.92 35.04 218.12 37.6 216.52C40.16 214.867 41.44 212.573 41.44 209.64C41.44 207.827 40.8533 206.28 39.68 205C38.5067 203.667 37.04 202.573 35.28 201.72C33.52 200.813 31.04 199.72 27.84 198.44C23.7333 196.84 20.3733 195.32 17.76 193.88C15.2 192.44 12.9867 190.493 11.12 188.04C9.30667 185.533 8.4 182.44 8.4 178.76C8.4 174.92 9.41333 171.507 11.44 168.52C13.52 165.533 16.48 163.213 20.32 161.56C24.2133 159.907 28.7733 159.08 34 159.08C37.8933 159.08 41.4667 159.667 44.72 160.84C47.9733 161.96 50.56 163.693 52.48 166.04C54.4533 168.387 55.44 171.267 55.44 174.68C55.44 178.04 54.9333 180.573 53.92 182.28C52.9067 183.987 51.4133 184.84 49.44 184.84C48.0533 184.84 46.88 184.413 45.92 183.56C45.0133 182.707 44.56 181.693 44.56 180.52C44.56 179.507 44.64 178.573 44.8 177.72C44.96 176.12 45.04 175.107 45.04 174.68C45.04 172.44 43.9467 170.733 41.76 169.56C39.5733 168.387 36.8533 167.8 33.6 167.8C29.0133 167.8 25.4933 168.653 23.04 170.36C20.64 172.013 19.44 174.36 19.44 177.4C19.44 179.427 20.0533 181.16 21.28 182.6C22.56 184.04 24.1333 185.24 26 186.2C27.8667 187.16 30.48 188.307 33.84 189.64C37.8933 191.293 41.1467 192.787 43.6 194.12C46.0533 195.453 48.1333 197.267 49.84 199.56C51.6 201.853 52.48 204.68 52.48 208.04C52.48 214.333 50.08 219.187 45.28 222.6C40.5333 225.96 34.16 227.64 26.16 227.64ZM94.9888 209.16C95.6821 209.16 96.2154 209.48 96.5887 210.12C97.0154 210.76 97.2288 211.64 97.2288 212.76C97.2288 214.893 96.7221 216.547 95.7088 217.72C93.7354 220.12 90.9354 222.333 87.3088 224.36C83.7354 226.387 79.8954 227.4 75.7888 227.4C70.1888 227.4 65.8421 225.88 62.7488 222.84C59.6554 219.8 58.1087 215.64 58.1087 210.36C58.1087 206.68 58.8821 203.267 60.4288 200.12C61.9754 196.92 64.1088 194.387 66.8288 192.52C69.6021 190.653 72.7221 189.72 76.1888 189.72C79.2821 189.72 81.7621 190.653 83.6288 192.52C85.4954 194.333 86.4288 196.813 86.4288 199.96C86.4288 203.64 85.0954 206.813 82.4288 209.48C79.8154 212.093 75.3621 214.173 69.0688 215.72C70.4021 218.173 72.9354 219.4 76.6688 219.4C79.0688 219.4 81.7888 218.573 84.8288 216.92C87.9221 215.213 90.5888 213 92.8288 210.28C93.4688 209.533 94.1888 209.16 94.9888 209.16ZM74.8288 197.56C72.8554 197.56 71.1754 198.707 69.7888 201C68.4554 203.293 67.7888 206.067 67.7888 209.32V209.48C70.9354 208.733 73.4154 207.613 75.2288 206.12C77.0421 204.627 77.9488 202.893 77.9488 200.92C77.9488 199.907 77.6554 199.107 77.0688 198.52C76.5354 197.88 75.7888 197.56 74.8288 197.56ZM96.395 227.4C94.3683 227.4 92.9283 226.333 92.075 224.2C91.275 222.067 90.875 218.653 90.875 213.96C90.875 207.027 91.8617 200.44 93.835 194.2C94.315 192.653 95.0883 191.533 96.155 190.84C97.275 190.093 98.8217 189.72 100.795 189.72C101.862 189.72 102.608 189.853 103.035 190.12C103.462 190.387 103.675 190.893 103.675 191.64C103.675 192.493 103.275 194.413 102.475 197.4C101.942 199.533 101.515 201.4 101.195 203C100.875 204.547 100.608 206.493 100.395 208.84C101.835 204.68 103.542 201.16 105.515 198.28C107.542 195.4 109.595 193.267 111.675 191.88C113.808 190.44 115.808 189.72 117.675 189.72C119.542 189.72 120.848 190.147 121.595 191C122.395 191.853 122.795 193.16 122.795 194.92C122.795 196.627 122.288 199.72 121.275 204.2C120.848 206.12 120.555 207.56 120.395 208.52C123.062 201.96 126.022 197.187 129.275 194.2C132.528 191.213 135.568 189.72 138.395 189.72C141.862 189.72 143.595 191.453 143.595 194.92C143.595 197 143.008 200.76 141.835 206.2C140.822 210.84 140.315 213.907 140.315 215.4C140.315 217.533 141.088 218.6 142.635 218.6C143.702 218.6 144.955 217.96 146.395 216.68C147.888 215.347 149.862 213.213 152.315 210.28C152.955 209.533 153.675 209.16 154.475 209.16C155.168 209.16 155.702 209.48 156.075 210.12C156.502 210.76 156.715 211.64 156.715 212.76C156.715 214.893 156.208 216.547 155.195 217.72C152.902 220.547 150.422 222.867 147.755 224.68C145.142 226.493 142.155 227.4 138.795 227.4C136.075 227.4 134.022 226.627 132.635 225.08C131.248 223.48 130.555 221.187 130.555 218.2C130.555 216.707 130.928 214.04 131.675 210.2C132.368 206.84 132.715 204.52 132.715 203.24C132.715 202.387 132.422 201.96 131.835 201.96C131.142 201.96 130.155 202.867 128.875 204.68C127.595 206.44 126.315 208.787 125.035 211.72C123.755 214.653 122.715 217.747 121.915 221C121.328 223.56 120.635 225.267 119.835 226.12C119.088 226.973 117.862 227.4 116.155 227.4C114.395 227.4 113.062 226.573 112.155 224.92C111.302 223.213 110.875 221.16 110.875 218.76C110.875 216.733 111.142 213.8 111.675 209.96C112.102 206.547 112.315 204.307 112.315 203.24C112.315 202.387 112.022 201.96 111.435 201.96C110.635 201.96 109.622 202.92 108.395 204.84C107.168 206.76 105.968 209.213 104.795 212.2C103.675 215.187 102.768 218.12 102.075 221C101.488 223.507 100.795 225.213 99.995 226.12C99.2483 226.973 98.0483 227.4 96.395 227.4ZM160.726 184.44C158.486 184.44 156.806 183.933 155.686 182.92C154.566 181.853 154.006 180.387 154.006 178.52C154.006 176.653 154.726 175.107 156.166 173.88C157.66 172.6 159.5 171.96 161.686 171.96C163.66 171.96 165.26 172.44 166.486 173.4C167.713 174.36 168.326 175.72 168.326 177.48C168.326 179.613 167.633 181.32 166.246 182.6C164.86 183.827 163.02 184.44 160.726 184.44ZM160.086 227.4C156.62 227.4 154.086 226.173 152.486 223.72C150.94 221.267 150.166 218.013 150.166 213.96C150.166 211.56 150.46 208.493 151.046 204.76C151.686 200.973 152.486 197.453 153.446 194.2C153.926 192.493 154.566 191.32 155.366 190.68C156.166 190.04 157.446 189.72 159.206 189.72C161.926 189.72 163.286 190.627 163.286 192.44C163.286 193.773 162.78 196.867 161.766 201.72C160.486 207.587 159.846 211.56 159.846 213.64C159.846 215.24 160.06 216.467 160.486 217.32C160.913 218.173 161.633 218.6 162.646 218.6C163.606 218.6 164.806 217.933 166.246 216.6C167.686 215.267 169.606 213.16 172.006 210.28C172.646 209.533 173.366 209.16 174.166 209.16C174.86 209.16 175.393 209.48 175.766 210.12C176.193 210.76 176.406 211.64 176.406 212.76C176.406 214.893 175.9 216.547 174.886 217.72C169.606 224.173 164.673 227.4 160.086 227.4ZM271.534 192.44C272.76 192.44 273.64 192.707 274.174 193.24C274.76 193.773 275.054 194.467 275.054 195.32C275.054 196.707 274.627 197.933 273.774 199C272.974 200.067 271.694 200.627 269.934 200.68C265.72 200.733 261.934 200.413 258.574 199.72C254.84 207.667 250.334 214.28 245.054 219.56C239.827 224.787 234.654 227.4 229.534 227.4C224.84 227.4 221.32 224.92 218.974 219.96C216.627 214.947 215.294 208.253 214.974 199.88C211.774 209.16 208.147 216.067 204.094 220.6C200.094 225.133 195.827 227.4 191.294 227.4C186.174 227.4 182.307 224.227 179.694 217.88C177.08 211.48 175.774 202.893 175.774 192.12C175.774 184.28 176.467 175.667 177.854 166.28C178.227 163.613 178.894 161.773 179.854 160.76C180.867 159.693 182.44 159.16 184.574 159.16C186.174 159.16 187.4 159.507 188.254 160.2C189.16 160.893 189.614 162.173 189.614 164.04C189.614 164.413 189.56 165.133 189.454 166.2C187.854 177.133 187.054 186.44 187.054 194.12C187.054 201.267 187.667 206.787 188.894 210.68C190.12 214.573 191.774 216.52 193.854 216.52C195.72 216.52 197.96 214.573 200.574 210.68C203.24 206.733 205.88 200.92 208.494 193.24C211.107 185.507 213.32 176.307 215.134 165.64C215.56 163.187 216.334 161.507 217.454 160.6C218.627 159.64 220.2 159.16 222.174 159.16C223.827 159.16 225.027 159.533 225.774 160.28C226.574 160.973 226.974 162.04 226.974 163.48C226.974 164.333 226.92 165 226.814 165.48C225.32 174.173 224.574 182.867 224.574 191.56C224.574 197.48 224.76 202.2 225.134 205.72C225.56 209.24 226.334 211.933 227.454 213.8C228.627 215.613 230.307 216.52 232.494 216.52C235.054 216.52 237.907 214.6 241.054 210.76C244.2 206.867 247.08 202.04 249.694 196.28C246.44 194.253 243.987 191.64 242.334 188.44C240.68 185.187 239.854 181.453 239.854 177.24C239.854 173.027 240.494 169.48 241.774 166.6C243.107 163.667 244.894 161.48 247.134 160.04C249.427 158.6 251.96 157.88 254.734 157.88C258.147 157.88 260.84 159.107 262.814 161.56C264.84 164.013 265.854 167.373 265.854 171.64C265.854 177.667 264.547 184.36 261.934 191.72C264.654 192.2 267.854 192.44 271.534 192.44ZM247.934 176.68C247.934 181.907 249.614 185.773 252.974 188.28C255.054 182.307 256.094 177.373 256.094 173.48C256.094 171.24 255.8 169.613 255.214 168.6C254.627 167.533 253.827 167 252.814 167C251.374 167 250.2 167.853 249.294 169.56C248.387 171.213 247.934 173.587 247.934 176.68ZM277.758 184.44C275.518 184.44 273.838 183.933 272.718 182.92C271.598 181.853 271.038 180.387 271.038 178.52C271.038 176.653 271.758 175.107 273.198 173.88C274.691 172.6 276.531 171.96 278.718 171.96C280.691 171.96 282.291 172.44 283.518 173.4C284.744 174.36 285.358 175.72 285.358 177.48C285.358 179.613 284.664 181.32 283.278 182.6C281.891 183.827 280.051 184.44 277.758 184.44ZM277.118 227.4C273.651 227.4 271.118 226.173 269.518 223.72C267.971 221.267 267.198 218.013 267.198 213.96C267.198 211.56 267.491 208.493 268.078 204.76C268.718 200.973 269.518 197.453 270.478 194.2C270.958 192.493 271.598 191.32 272.398 190.68C273.198 190.04 274.478 189.72 276.238 189.72C278.958 189.72 280.318 190.627 280.318 192.44C280.318 193.773 279.811 196.867 278.798 201.72C277.518 207.587 276.878 211.56 276.878 213.64C276.878 215.24 277.091 216.467 277.518 217.32C277.944 218.173 278.664 218.6 279.678 218.6C280.638 218.6 281.838 217.933 283.278 216.6C284.718 215.267 286.638 213.16 289.038 210.28C289.678 209.533 290.398 209.16 291.198 209.16C291.891 209.16 292.424 209.48 292.798 210.12C293.224 210.76 293.438 211.64 293.438 212.76C293.438 214.893 292.931 216.547 291.918 217.72C286.638 224.173 281.704 227.4 277.118 227.4ZM333.205 209.16C333.898 209.16 334.432 209.48 334.805 210.12C335.232 210.76 335.445 211.64 335.445 212.76C335.445 214.893 334.938 216.547 333.925 217.72C331.525 220.653 329.098 223 326.645 224.76C324.192 226.52 321.285 227.4 317.925 227.4C313.818 227.4 310.512 226.227 308.005 223.88C305.498 221.533 304.245 218.413 304.245 214.52C304.245 212.44 305.312 210.947 307.445 210.04C309.792 209.027 311.472 207.96 312.485 206.84C313.498 205.667 314.005 204.253 314.005 202.6C314.005 201.64 313.792 200.92 313.365 200.44C312.992 199.96 312.512 199.72 311.925 199.72C310.485 199.72 308.885 200.76 307.125 202.84C305.418 204.92 303.818 207.613 302.325 210.92C300.832 214.173 299.658 217.533 298.805 221C298.218 223.507 297.525 225.213 296.725 226.12C295.978 226.973 294.778 227.4 293.125 227.4C291.472 227.4 290.245 226.813 289.445 225.64C288.698 224.413 288.192 222.547 287.925 220.04C287.658 217.533 287.525 213.853 287.525 209C287.525 200.787 288.352 192.227 290.005 183.32C291.712 174.413 294.192 166.947 297.445 160.92C300.752 154.84 304.698 151.8 309.285 151.8C311.738 151.8 313.712 152.867 315.205 155C316.752 157.08 317.525 159.8 317.525 163.16C317.525 168.547 315.952 174.147 312.805 179.96C309.658 185.72 304.538 192.467 297.445 200.2C297.285 202.973 297.205 205.827 297.205 208.76C299.765 202.093 302.698 197.267 306.005 194.28C309.312 191.24 312.405 189.72 315.285 189.72C317.952 189.72 320.085 190.627 321.685 192.44C323.338 194.253 324.165 196.493 324.165 199.16C324.165 202.093 323.418 204.787 321.925 207.24C320.432 209.693 317.872 211.88 314.245 213.8C314.458 215.24 315.098 216.413 316.165 217.32C317.285 218.173 318.618 218.6 320.165 218.6C321.818 218.6 323.418 217.96 324.965 216.68C326.512 215.4 328.538 213.267 331.045 210.28C331.685 209.533 332.405 209.16 333.205 209.16ZM307.605 159.72C306.645 159.72 305.578 161.107 304.405 163.88C303.232 166.6 302.085 170.307 300.965 175C299.898 179.64 299.018 184.707 298.325 190.2C301.632 186.307 304.352 182.067 306.485 177.48C308.672 172.893 309.765 168.733 309.765 165C309.765 163.293 309.578 161.987 309.205 161.08C308.832 160.173 308.298 159.72 307.605 159.72ZM340.036 184.44C337.796 184.44 336.116 183.933 334.996 182.92C333.876 181.853 333.316 180.387 333.316 178.52C333.316 176.653 334.036 175.107 335.476 173.88C336.97 172.6 338.81 171.96 340.996 171.96C342.97 171.96 344.57 172.44 345.796 173.4C347.023 174.36 347.636 175.72 347.636 177.48C347.636 179.613 346.943 181.32 345.556 182.6C344.17 183.827 342.33 184.44 340.036 184.44ZM332.356 227.4C330.65 227.4 329.476 227.053 328.836 226.36C328.196 225.667 327.876 224.573 327.876 223.08C327.876 222.653 327.93 221.907 328.036 220.84C328.89 211.08 330.303 202.2 332.276 194.2C332.703 192.547 333.396 191.4 334.356 190.76C335.37 190.067 336.97 189.72 339.156 189.72C341.45 189.72 342.596 190.653 342.596 192.52C342.596 192.787 342.543 193.293 342.436 194.04C340.036 205.453 338.596 215.027 338.116 222.76C338.01 224.467 337.503 225.667 336.596 226.36C335.69 227.053 334.276 227.4 332.356 227.4Z" fill="black"/>
<path d="M99 16.1954L80 110.695C114.5 96.1954 149.5 101.695 157.5 114.695C178.687 98.607 231.966 103.27 244 109.695L263 23.1954L256 20.6954L237.5 99.6954C213.698 79.6452 170.535 89.4626 164.439 96.1187C164.292 96.3094 164.145 96.5017 164 96.6954C164.114 96.5064 164.26 96.3139 164.439 96.1187C179.523 76.6195 206.271 72.8213 234 85.6954L250.5 6.19541C198.8 -10.4141 180 10.6954 173.5 19.1954C168.969 11.0333 139 3.19531 99 16.1954Z" fill="#3D3D3D"/>
<path d="M157.5 114.695C149.5 101.695 114.5 96.1954 80 110.695C83.5 112.695 85 117.695 85 117.695C111 109.195 141 109.695 155.5 123.195C179.695 111.099 207 110.695 236 119.695C234.674 113.929 242.082 109.275 244 109.695C231.966 103.27 178.687 98.607 157.5 114.695Z" fill="#252525"/>
</svg>
