<svg width="231" height="72" viewBox="0 0 231 72" fill="none" xmlns="http://www.w3.org/2000/svg">
<path d="M94.8048 50.256C91.9675 50.256 89.6955 49.7227 87.9888 48.656C86.2822 47.568 85.4288 45.9147 85.4288 43.696C85.4288 42.5227 85.6315 41.6267 86.0368 41.008C86.4422 40.3893 87.0395 40.08 87.8288 40.08C88.4048 40.08 88.8742 40.2293 89.2368 40.528C89.5995 40.8267 89.7808 41.2107 89.7808 41.68C89.7808 42.1067 89.7488 42.48 89.6848 42.8C89.6848 42.8853 89.6635 43.0347 89.6208 43.248C89.5995 43.4613 89.5888 43.6853 89.5888 43.92C89.5888 44.88 90.0688 45.5947 91.0288 46.064C92.0102 46.5333 93.3755 46.768 95.1248 46.768C96.9382 46.768 98.3568 46.448 99.3808 45.808C100.405 45.1467 100.917 44.2293 100.917 43.056C100.917 42.3307 100.682 41.712 100.213 41.2C99.7435 40.6667 99.1568 40.2293 98.4528 39.888C97.7488 39.5253 96.7568 39.088 95.4768 38.576C93.8342 37.936 92.4902 37.328 91.4448 36.752C90.4208 36.176 89.5355 35.3973 88.7888 34.416C88.0635 33.4133 87.7008 32.176 87.7008 30.704C87.7008 29.168 88.1062 27.8027 88.9168 26.608C89.7488 25.4133 90.9328 24.4853 92.4688 23.824C94.0262 23.1627 95.8502 22.832 97.9408 22.832C99.4982 22.832 100.927 23.0667 102.229 23.536C103.53 23.984 104.565 24.6773 105.333 25.616C106.122 26.5547 106.517 27.7067 106.517 29.072C106.517 30.416 106.314 31.4293 105.909 32.112C105.503 32.7947 104.906 33.136 104.117 33.136C103.562 33.136 103.093 32.9653 102.709 32.624C102.346 32.2827 102.165 31.8773 102.165 31.408C102.165 31.0027 102.197 30.6293 102.261 30.288C102.325 29.648 102.357 29.2427 102.357 29.072C102.357 28.176 101.919 27.4933 101.045 27.024C100.17 26.5547 99.0822 26.32 97.7808 26.32C95.9462 26.32 94.5382 26.6613 93.5568 27.344C92.5968 28.0053 92.1168 28.944 92.1168 30.16C92.1168 30.9707 92.3622 31.664 92.8528 32.24C93.3648 32.816 93.9942 33.296 94.7408 33.68C95.4875 34.064 96.5328 34.5227 97.8768 35.056C99.4982 35.7173 100.799 36.3147 101.781 36.848C102.762 37.3813 103.594 38.1067 104.277 39.024C104.981 39.9413 105.333 41.072 105.333 42.416C105.333 44.9333 104.373 46.8747 102.453 48.24C100.554 49.584 98.0048 50.256 94.8048 50.256ZM122.336 42.864C122.614 42.864 122.827 42.992 122.976 43.248C123.147 43.504 123.232 43.856 123.232 44.304C123.232 45.1573 123.03 45.8187 122.624 46.288C121.835 47.248 120.715 48.1333 119.264 48.944C117.835 49.7547 116.299 50.16 114.656 50.16C112.416 50.16 110.678 49.552 109.44 48.336C108.203 47.12 107.584 45.456 107.584 43.344C107.584 41.872 107.894 40.5067 108.512 39.248C109.131 37.968 109.984 36.9547 111.072 36.208C112.182 35.4613 113.43 35.088 114.816 35.088C116.054 35.088 117.046 35.4613 117.792 36.208C118.539 36.9333 118.912 37.9253 118.912 39.184C118.912 40.656 118.379 41.9253 117.312 42.992C116.267 44.0373 114.486 44.8693 111.968 45.488C112.502 46.4693 113.515 46.96 115.008 46.96C115.968 46.96 117.056 46.6293 118.272 45.968C119.51 45.2853 120.576 44.4 121.472 43.312C121.728 43.0133 122.016 42.864 122.336 42.864ZM114.272 38.224C113.483 38.224 112.811 38.6827 112.256 39.6C111.723 40.5173 111.456 41.6267 111.456 42.928V42.992C112.715 42.6933 113.707 42.2453 114.432 41.648C115.158 41.0507 115.52 40.3573 115.52 39.568C115.52 39.1627 115.403 38.8427 115.168 38.608C114.955 38.352 114.656 38.224 114.272 38.224ZM122.899 50.16C122.088 50.16 121.512 49.7333 121.171 48.88C120.851 48.0267 120.691 46.6613 120.691 44.784C120.691 42.0107 121.085 39.376 121.875 36.88C122.067 36.2613 122.376 35.8133 122.803 35.536C123.251 35.2373 123.869 35.088 124.659 35.088C125.085 35.088 125.384 35.1413 125.555 35.248C125.725 35.3547 125.811 35.5573 125.811 35.856C125.811 36.1973 125.651 36.9653 125.331 38.16C125.117 39.0133 124.947 39.76 124.819 40.4C124.691 41.0187 124.584 41.7973 124.499 42.736C125.075 41.072 125.757 39.664 126.547 38.512C127.357 37.36 128.179 36.5067 129.011 35.952C129.864 35.376 130.664 35.088 131.411 35.088C132.157 35.088 132.68 35.2587 132.979 35.6C133.299 35.9413 133.459 36.464 133.459 37.168C133.459 37.8507 133.256 39.088 132.851 40.88C132.68 41.648 132.563 42.224 132.499 42.608C133.565 39.984 134.749 38.0747 136.051 36.88C137.352 35.6853 138.568 35.088 139.699 35.088C141.085 35.088 141.779 35.7813 141.779 37.168C141.779 38 141.544 39.504 141.075 41.68C140.669 43.536 140.467 44.7627 140.467 45.36C140.467 46.2133 140.776 46.64 141.395 46.64C141.821 46.64 142.323 46.384 142.899 45.872C143.496 45.3387 144.285 44.4853 145.267 43.312C145.523 43.0133 145.811 42.864 146.131 42.864C146.408 42.864 146.621 42.992 146.771 43.248C146.941 43.504 147.027 43.856 147.027 44.304C147.027 45.1573 146.824 45.8187 146.419 46.288C145.501 47.4187 144.509 48.3467 143.443 49.072C142.397 49.7973 141.203 50.16 139.859 50.16C138.771 50.16 137.949 49.8507 137.395 49.232C136.84 48.592 136.563 47.6747 136.563 46.48C136.563 45.8827 136.712 44.816 137.011 43.28C137.288 41.936 137.427 41.008 137.427 40.496C137.427 40.1547 137.309 39.984 137.075 39.984C136.797 39.984 136.403 40.3467 135.891 41.072C135.379 41.776 134.867 42.7147 134.355 43.888C133.843 45.0613 133.427 46.2987 133.107 47.6C132.872 48.624 132.595 49.3067 132.275 49.648C131.976 49.9893 131.485 50.16 130.803 50.16C130.099 50.16 129.565 49.8293 129.203 49.168C128.861 48.4853 128.691 47.664 128.691 46.704C128.691 45.8933 128.797 44.72 129.011 43.184C129.181 41.8187 129.267 40.9227 129.267 40.496C129.267 40.1547 129.149 39.984 128.915 39.984C128.595 39.984 128.189 40.368 127.699 41.136C127.208 41.904 126.728 42.8853 126.259 44.08C125.811 45.2747 125.448 46.448 125.171 47.6C124.936 48.6027 124.659 49.2853 124.339 49.648C124.04 49.9893 123.56 50.16 122.899 50.16ZM148.631 32.976C147.735 32.976 147.063 32.7733 146.615 32.368C146.167 31.9413 145.943 31.3547 145.943 30.608C145.943 29.8613 146.231 29.2427 146.807 28.752C147.405 28.24 148.141 27.984 149.015 27.984C149.805 27.984 150.445 28.176 150.935 28.56C151.426 28.944 151.671 29.488 151.671 30.192C151.671 31.0453 151.394 31.728 150.839 32.24C150.285 32.7307 149.549 32.976 148.631 32.976ZM148.375 50.16C146.989 50.16 145.975 49.6693 145.335 48.688C144.717 47.7067 144.407 46.4053 144.407 44.784C144.407 43.824 144.525 42.5973 144.759 41.104C145.015 39.5893 145.335 38.1813 145.719 36.88C145.911 36.1973 146.167 35.728 146.487 35.472C146.807 35.216 147.319 35.088 148.023 35.088C149.111 35.088 149.655 35.4507 149.655 36.176C149.655 36.7093 149.453 37.9467 149.047 39.888C148.535 42.2347 148.279 43.824 148.279 44.656C148.279 45.296 148.365 45.7867 148.535 46.128C148.706 46.4693 148.994 46.64 149.399 46.64C149.783 46.64 150.263 46.3733 150.839 45.84C151.415 45.3067 152.183 44.464 153.143 43.312C153.399 43.0133 153.687 42.864 154.007 42.864C154.285 42.864 154.498 42.992 154.647 43.248C154.818 43.504 154.903 43.856 154.903 44.304C154.903 45.1573 154.701 45.8187 154.295 46.288C152.183 48.8693 150.21 50.16 148.375 50.16ZM192.954 36.176C193.445 36.176 193.797 36.2827 194.01 36.496C194.245 36.7093 194.362 36.9867 194.362 37.328C194.362 37.8827 194.192 38.3733 193.85 38.8C193.53 39.2267 193.018 39.4507 192.314 39.472C190.629 39.4933 189.114 39.3653 187.77 39.088C186.277 42.2667 184.474 44.912 182.362 47.024C180.272 49.1147 178.202 50.16 176.154 50.16C174.277 50.16 172.869 49.168 171.93 47.184C170.992 45.1787 170.458 42.5013 170.33 39.152C169.05 42.864 167.6 45.6267 165.978 47.44C164.378 49.2533 162.672 50.16 160.858 50.16C158.81 50.16 157.264 48.8907 156.218 46.352C155.173 43.792 154.65 40.3573 154.65 36.048C154.65 32.912 154.928 29.4667 155.482 25.712C155.632 24.6453 155.898 23.9093 156.282 23.504C156.688 23.0773 157.317 22.864 158.17 22.864C158.81 22.864 159.301 23.0027 159.642 23.28C160.005 23.5573 160.186 24.0693 160.186 24.816C160.186 24.9653 160.165 25.2533 160.122 25.68C159.482 30.0533 159.162 33.776 159.162 36.848C159.162 39.7067 159.408 41.9147 159.898 43.472C160.389 45.0293 161.05 45.808 161.882 45.808C162.629 45.808 163.525 45.0293 164.57 43.472C165.637 41.8933 166.693 39.568 167.738 36.496C168.784 33.4027 169.669 29.7227 170.394 25.456C170.565 24.4747 170.874 23.8027 171.322 23.44C171.792 23.056 172.421 22.864 173.21 22.864C173.872 22.864 174.352 23.0133 174.65 23.312C174.97 23.5893 175.13 24.016 175.13 24.592C175.13 24.9333 175.109 25.2 175.066 25.392C174.469 28.8693 174.17 32.3467 174.17 35.824C174.17 38.192 174.245 40.08 174.394 41.488C174.565 42.896 174.874 43.9733 175.322 44.72C175.792 45.4453 176.464 45.808 177.338 45.808C178.362 45.808 179.504 45.04 180.762 43.504C182.021 41.9467 183.173 40.016 184.218 37.712C182.917 36.9013 181.936 35.856 181.274 34.576C180.613 33.2747 180.282 31.7813 180.282 30.096C180.282 28.4107 180.538 26.992 181.05 25.84C181.584 24.6667 182.298 23.792 183.194 23.216C184.112 22.64 185.125 22.352 186.234 22.352C187.6 22.352 188.677 22.8427 189.466 23.824C190.277 24.8053 190.682 26.1493 190.682 27.856C190.682 30.2667 190.16 32.944 189.114 35.888C190.202 36.08 191.482 36.176 192.954 36.176ZM183.514 29.872C183.514 31.9627 184.186 33.5093 185.53 34.512C186.362 32.1227 186.778 30.1493 186.778 28.592C186.778 27.696 186.661 27.0453 186.426 26.64C186.192 26.2133 185.872 26 185.466 26C184.89 26 184.421 26.3413 184.058 27.024C183.696 27.6853 183.514 28.6347 183.514 29.872ZM195.444 32.976C194.548 32.976 193.876 32.7733 193.428 32.368C192.98 31.9413 192.756 31.3547 192.756 30.608C192.756 29.8613 193.044 29.2427 193.62 28.752C194.217 28.24 194.953 27.984 195.828 27.984C196.617 27.984 197.257 28.176 197.748 28.56C198.238 28.944 198.484 29.488 198.484 30.192C198.484 31.0453 198.206 31.728 197.652 32.24C197.097 32.7307 196.361 32.976 195.444 32.976ZM195.188 50.16C193.801 50.16 192.788 49.6693 192.148 48.688C191.529 47.7067 191.22 46.4053 191.22 44.784C191.22 43.824 191.337 42.5973 191.572 41.104C191.828 39.5893 192.148 38.1813 192.532 36.88C192.724 36.1973 192.98 35.728 193.3 35.472C193.62 35.216 194.132 35.088 194.836 35.088C195.924 35.088 196.468 35.4507 196.468 36.176C196.468 36.7093 196.265 37.9467 195.86 39.888C195.348 42.2347 195.092 43.824 195.092 44.656C195.092 45.296 195.177 45.7867 195.348 46.128C195.518 46.4693 195.806 46.64 196.212 46.64C196.596 46.64 197.076 46.3733 197.652 45.84C198.228 45.3067 198.996 44.464 199.956 43.312C200.212 43.0133 200.5 42.864 200.82 42.864C201.097 42.864 201.31 42.992 201.46 43.248C201.63 43.504 201.716 43.856 201.716 44.304C201.716 45.1573 201.513 45.8187 201.108 46.288C198.996 48.8693 197.022 50.16 195.188 50.16ZM217.623 42.864C217.9 42.864 218.113 42.992 218.263 43.248C218.433 43.504 218.519 43.856 218.519 44.304C218.519 45.1573 218.316 45.8187 217.911 46.288C216.951 47.4613 215.98 48.4 214.999 49.104C214.017 49.808 212.855 50.16 211.511 50.16C209.868 50.16 208.545 49.6907 207.543 48.752C206.54 47.8133 206.039 46.5653 206.039 45.008C206.039 44.176 206.465 43.5787 207.319 43.216C208.257 42.8107 208.929 42.384 209.335 41.936C209.74 41.4667 209.943 40.9013 209.943 40.24C209.943 39.856 209.857 39.568 209.687 39.376C209.537 39.184 209.345 39.088 209.111 39.088C208.535 39.088 207.895 39.504 207.191 40.336C206.508 41.168 205.868 42.2453 205.271 43.568C204.673 44.8693 204.204 46.2133 203.863 47.6C203.628 48.6027 203.351 49.2853 203.031 49.648C202.732 49.9893 202.252 50.16 201.591 50.16C200.929 50.16 200.439 49.9253 200.119 49.456C199.82 48.9653 199.617 48.2187 199.511 47.216C199.404 46.2133 199.351 44.7413 199.351 42.8C199.351 39.5147 199.681 36.0907 200.343 32.528C201.025 28.9653 202.017 25.9787 203.319 23.568C204.641 21.136 206.22 19.92 208.055 19.92C209.036 19.92 209.825 20.3467 210.423 21.2C211.041 22.032 211.351 23.12 211.351 24.464C211.351 26.6187 210.721 28.8587 209.463 31.184C208.204 33.488 206.156 36.1867 203.319 39.28C203.255 40.3893 203.223 41.5307 203.223 42.704C204.247 40.0373 205.42 38.1067 206.743 36.912C208.065 35.696 209.303 35.088 210.455 35.088C211.521 35.088 212.375 35.4507 213.015 36.176C213.676 36.9013 214.007 37.7973 214.007 38.864C214.007 40.0373 213.708 41.1147 213.111 42.096C212.513 43.0773 211.489 43.952 210.039 44.72C210.124 45.296 210.38 45.7653 210.807 46.128C211.255 46.4693 211.788 46.64 212.407 46.64C213.068 46.64 213.708 46.384 214.327 45.872C214.945 45.36 215.756 44.5067 216.759 43.312C217.015 43.0133 217.303 42.864 217.623 42.864ZM207.383 23.088C206.999 23.088 206.572 23.6427 206.103 24.752C205.633 25.84 205.175 27.3227 204.727 29.2C204.3 31.056 203.948 33.0827 203.671 35.28C204.993 33.7227 206.081 32.0267 206.935 30.192C207.809 28.3573 208.247 26.6933 208.247 25.2C208.247 24.5173 208.172 23.9947 208.023 23.632C207.873 23.2693 207.66 23.088 207.383 23.088ZM220.355 32.976C219.459 32.976 218.787 32.7733 218.339 32.368C217.891 31.9413 217.667 31.3547 217.667 30.608C217.667 29.8613 217.955 29.2427 218.531 28.752C219.129 28.24 219.865 27.984 220.739 27.984C221.529 27.984 222.169 28.176 222.659 28.56C223.15 28.944 223.395 29.488 223.395 30.192C223.395 31.0453 223.118 31.728 222.563 32.24C222.009 32.7307 221.273 32.976 220.355 32.976ZM217.283 50.16C216.601 50.16 216.131 50.0213 215.875 49.744C215.619 49.4667 215.491 49.0293 215.491 48.432C215.491 48.2613 215.513 47.9627 215.555 47.536C215.897 43.632 216.462 40.08 217.251 36.88C217.422 36.2187 217.699 35.76 218.083 35.504C218.489 35.2267 219.129 35.088 220.003 35.088C220.921 35.088 221.379 35.4613 221.379 36.208C221.379 36.3147 221.358 36.5173 221.315 36.816C220.355 41.3813 219.779 45.2107 219.587 48.304C219.545 48.9867 219.342 49.4667 218.979 49.744C218.617 50.0213 218.051 50.16 217.283 50.16Z" fill="#EFEFEF"/>
<path d="M15.4754 19.3101L8 56.1297C21.5738 50.4801 35.3443 52.6231 38.4918 57.6882C46.8277 51.4197 67.7898 53.2364 72.5246 55.7401L80 22.0375L77.2459 21.0634L69.9672 51.8438C60.6025 44.0318 43.6203 47.8569 41.222 50.4502C41.164 50.5246 41.1064 50.5995 41.0492 50.6749C41.0939 50.6013 41.1517 50.5263 41.222 50.4502C47.1567 42.8529 57.6805 41.373 68.5902 46.3891L75.082 15.4139C54.7409 8.94242 47.3443 17.1672 44.7869 20.479C43.0044 17.2988 31.213 14.245 15.4754 19.3101Z" fill="#EFEFEF"/>
<path d="M38.4918 57.6882C35.3443 52.6231 21.5738 50.4801 8 56.1297C9.37705 56.9089 9.96721 58.8571 9.96721 58.8571C20.1966 55.5453 32 55.7401 37.7049 61C47.2244 56.287 57.9672 56.1297 69.377 59.6363C68.8553 57.3896 71.7701 55.5763 72.5246 55.7401C67.7898 53.2364 46.8277 51.4197 38.4918 57.6882Z" fill="#252525"/>
</svg>
