<svg width="78" height="52" viewBox="0 0 78 52" fill="none" xmlns="http://www.w3.org/2000/svg">
<path d="M10.4754 8.31013L3 45.1297C16.5738 39.4801 30.3443 41.6231 33.4918 46.6882C41.8277 40.4197 62.7898 42.2364 67.5246 44.7401L75 11.0375L72.2459 10.0634L64.9672 40.8438C55.6025 33.0318 38.6203 36.8569 36.222 39.4502C36.164 39.5246 36.1064 39.5995 36.0492 39.6749C36.0939 39.6013 36.1517 39.5263 36.222 39.4502C42.1567 31.8529 52.6805 30.373 63.5902 35.3891L70.082 4.41389C49.7409 -2.05758 42.3443 6.16718 39.7869 9.47901C38.0044 6.29885 26.213 3.24497 10.4754 8.31013Z" fill="#F9F9F9"/>
<path d="M33.4918 46.6882C30.3443 41.6231 16.5738 39.4801 3 45.1297C4.37705 45.9089 4.96721 47.8571 4.96721 47.8571C15.1966 44.5452 27 44.7401 32.7049 50C42.2244 45.287 52.9672 45.1297 64.377 48.6363C63.8553 46.3896 66.7701 44.5763 67.5246 44.7401C62.7898 42.2364 41.8277 40.4197 33.4918 46.6882Z" fill="#EFEFEF"/>
</svg>
