<svg width="26" height="22" viewBox="0 0 26 22" fill="none" xmlns="http://www.w3.org/2000/svg">
<path d="M3.64286 6.5935C2.55139 7.88171 1.73864 9.38207 1.25586 11C2.76319 16.061 7.45086 19.75 12.9995 19.75C14.158 19.75 15.278 19.589 16.3397 19.2892M6.26553 4.266C8.26358 2.94744 10.6056 2.24629 12.9995 2.25C18.5482 2.25 23.2347 5.939 24.742 10.9977C23.9159 13.7618 22.1427 16.1468 19.7335 17.734M6.26553 4.266L2.49953 0.5M6.26553 4.266L10.5239 8.52433M19.7335 17.734L23.4995 21.5M19.7335 17.734L15.4752 13.4757C15.8002 13.1506 16.0581 12.7648 16.234 12.3401C16.4099 11.9154 16.5004 11.4602 16.5004 11.0006C16.5004 10.5409 16.4099 10.0858 16.234 9.66108C16.0581 9.2364 15.8002 8.85053 15.4752 8.5255C15.1502 8.20047 14.7643 7.94264 14.3396 7.76673C13.9149 7.59082 13.4598 7.50029 13.0001 7.50029C12.5404 7.50029 12.0853 7.59082 11.6606 7.76673C11.2359 7.94264 10.8501 8.20047 10.525 8.5255M15.474 13.4745L10.5262 8.52667" stroke="#9E9E9E" stroke-linecap="round" stroke-linejoin="round"/>
</svg>
