<svg width="28" height="28" viewBox="0 0 28 28" fill="none" xmlns="http://www.w3.org/2000/svg">
<path d="M26.149 13.6344C23.5279 8.78888 18.9312 5.85666 13.8446 5.85666C8.75789 5.85666 4.15345 8.78888 1.55567 13.6344L1.33789 14L1.54011 14.3733C4.16122 19.2189 8.75789 22.1511 13.8446 22.1511C18.9312 22.1511 23.5357 19.2578 26.149 14.3733L26.3512 14L26.149 13.6344ZM13.8446 20.5567C9.46567 20.5567 5.44456 18.1144 3.11122 14C5.44456 9.88555 9.46567 7.44333 13.8446 7.44333C18.2234 7.44333 22.1979 9.89332 24.5701 14C22.1979 18.1144 18.2157 20.5567 13.8446 20.5567Z" fill="#9E9E9E"/>
<path d="M14.0701 8.68776C13.0155 8.69546 11.9868 9.0155 11.1141 9.60747C10.2413 10.1994 9.56347 11.0368 9.1663 12.0137C8.76912 12.9907 8.67036 14.0634 8.88251 15.0965C9.09465 16.1295 9.60817 17.0765 10.3582 17.8179C11.1083 18.5593 12.0612 19.0617 13.0966 19.2618C14.1321 19.4619 15.2036 19.3507 16.1759 18.9421C17.1481 18.5336 17.9775 17.8461 18.5593 16.9665C19.141 16.0869 19.4491 15.0546 19.4445 14C19.4414 13.298 19.2999 12.6035 19.028 11.9563C18.756 11.3091 18.359 10.722 17.8598 10.2285C17.3605 9.73498 16.7688 9.34486 16.1184 9.08048C15.4681 8.81609 14.772 8.68264 14.0701 8.68776ZM14.0701 17.8033C13.3251 17.7956 12.5991 17.568 11.9831 17.1491C11.3672 16.7301 10.8887 16.1385 10.6079 15.4485C10.3271 14.7585 10.2564 14.0009 10.4047 13.2709C10.553 12.5408 10.9138 11.8709 11.4416 11.3452C11.9694 10.8195 12.6408 10.4615 13.3715 10.3162C14.1021 10.1708 14.8594 10.2446 15.5482 10.5282C16.2371 10.8119 16.8268 11.2927 17.2432 11.9104C17.6597 12.5281 17.8843 13.255 17.8889 14C17.891 14.5013 17.7935 14.9981 17.6022 15.4615C17.4108 15.9249 17.1293 16.3457 16.7741 16.6995C16.4189 17.0533 15.9969 17.333 15.5327 17.5225C15.0686 17.712 14.5714 17.8074 14.0701 17.8033Z" fill="#9E9E9E"/>
</svg>
