<svg width="21" height="25" viewBox="0 0 21 25" fill="none" xmlns="http://www.w3.org/2000/svg">
<path d="M10.5 4.63836e-09C12.3111 -6.52988e-05 14.0518 0.689427 15.3562 1.92361C16.6607 3.15779 17.4274 4.8406 17.4953 6.61846L17.5 6.87632H18.6667C19.2553 6.87614 19.8223 7.09453 20.254 7.48773C20.6856 7.88093 20.95 8.41987 20.9942 8.99652L21 9.16842V20.629C21.0002 21.2072 20.7779 21.7642 20.3776 22.1882C19.9773 22.6122 19.4287 22.872 18.8417 22.9153L18.6667 22.9211H2.33333C1.74466 22.9212 1.17767 22.7028 0.746027 22.3096C0.314382 21.9164 0.049984 21.3775 0.00583358 20.8009L1.16979e-07 20.629V9.16842C-0.000186176 8.59015 0.222141 8.03318 0.622413 7.60916C1.02269 7.18515 1.57132 6.92542 2.15833 6.88205L2.33333 6.87632H3.5C3.5 5.05261 4.2375 3.30359 5.55025 2.01403C6.86301 0.724467 8.64348 4.63836e-09 10.5 4.63836e-09ZM18.6667 9.16842H2.33333V20.629H18.6667V9.16842ZM10.5 11.4605C10.9977 11.4607 11.4823 11.6172 11.883 11.9071C12.2837 12.197 12.5796 12.6052 12.7274 13.0721C12.8751 13.5389 12.8671 14.0399 12.7044 14.502C12.5417 14.964 12.2328 15.3628 11.823 15.6402L11.6667 15.7376V17.1908C11.6663 17.4829 11.5525 17.7639 11.3483 17.9763C11.1442 18.1887 10.8652 18.3165 10.5684 18.3336C10.2715 18.3507 9.97922 18.2559 9.75119 18.0684C9.52317 17.8809 9.37662 17.6149 9.3415 17.3249L9.33333 17.1908V15.7376C8.88853 15.4853 8.5409 15.0959 8.34436 14.6297C8.14782 14.1636 8.11334 13.6467 8.24628 13.1594C8.37922 12.672 8.67214 12.2414 9.07962 11.9342C9.4871 11.6271 9.98637 11.4606 10.5 11.4605ZM10.5 2.29211C9.26232 2.29211 8.07534 2.77508 7.20017 3.63479C6.325 4.4945 5.83333 5.66051 5.83333 6.87632H15.1667C15.1667 5.66051 14.675 4.4945 13.7998 3.63479C12.9247 2.77508 11.7377 2.29211 10.5 2.29211Z" fill="#FF7F00"/>
</svg>
