<svg width="50" height="50" viewBox="0 0 50 50" fill="none" xmlns="http://www.w3.org/2000/svg">
<path d="M3.55473 34.4922C3.95512 33.0664 4.70707 31.7676 5.76176 30.7129L23.4571 13.0176L26.7676 9.70703L36.9239 19.8633L40.2344 23.1738L36.9239 26.4844L19.2286 44.1797C18.1836 45.2246 16.875 45.9863 15.4493 46.3867L2.96879 49.8633C2.15824 50.0879 1.27934 49.8633 0.683635 49.2578C0.0879323 48.6523 -0.136677 47.7832 0.0879323 46.9727L3.55473 34.4922ZM8.98442 34.1309C8.55473 34.5898 8.24223 35.1465 8.07621 35.752L5.7227 44.2383L14.209 41.8848C14.834 41.709 15.4004 41.3867 15.8692 40.9375L8.97465 34.1309H8.98442ZM43.5547 19.8633L33.3985 9.70703L30.0782 6.39648L34.4629 2.01172C35.7813 0.683594 37.5782 -0.0585938 39.4532 -0.0585938C41.3282 -0.0585938 43.125 0.683594 44.4434 2.01172L47.9297 5.49805C49.2579 6.82617 50 8.62305 50 10.4883C50 12.3535 49.2579 14.1602 47.9297 15.4785L43.545 19.8633H43.5547Z" fill="#FF9E3D"/>
</svg>
